PathFileType	4	(X/Y/Z)	/Users/niels/Desktop/University/Third Semester/Perception and Action/Exam/Gymnastics Motion Tracking/Code for Gym Tracking/Analyzed Data/Webcam_Backflip/id1_4_trajectory_Sports2D/id1_4_trajectory_Sports2D_px_person00.trc
DataRate	CameraRate	NumFrames	NumMarkers	Units	OrigDataRate	OrigDataStartFrame	OrigNumFrames
29.71698113207547	29.71698113207547	12	22	m	29.71698113207547	92	106
Frame#	Time	Hip			RHip			RKnee			RAnkle			RBigToe			RSmallToe			RHeel			LHip			LKnee			LAnkle			LBigToe			LSmallToe			LHeel			Neck			Head			Nose			RShoulder			RElbow			RWrist			LShoulder			LElbow			LWrist		
		X1	Y1	Z1	X2	Y2	Z2	X3	Y3	Z3	X4	Y4	Z4	X5	Y5	Z5	X6	Y6	Z6	X7	Y7	Z7	X8	Y8	Z8	X9	Y9	Z9	X10	Y10	Z10	X11	Y11	Z11	X12	Y12	Z12	X13	Y13	Z13	X14	Y14	Z14	X15	Y15	Z15	X16	Y16	Z16	X17	Y17	Z17	X18	Y18	Z18	X19	Y19	Z19	X20	Y20	Z20	X21	Y21	Z21	X22	Y22	Z22
92	3.0958730158730154	0.60484028714918	-0.5827817729951323	0.0	0.5896475203919674	-0.5806303702747532	0.0	0.6513586363083973	-0.6896824979469851	0.0	0.6456887774046447	-0.8126200231741961	0.0	0.6967536125479911	-0.8344979442843249	0.0	0.6850203436493516	-0.8391224106931146	0.0	0.637322892253971	-0.8329101989743078	0.0	0.627563450869061	-0.5851444663769674	0.0	0.663303573062337	-0.6855795643286929	0.0	0.6177048916484894	-0.7987450110394316	0.0	0.6718314464701134	-0.8226508580561582	0.0	0.6675664589385661	-0.8223108826243636	0.0	0.6040615285768771	-0.8218272699496905	0.0	0.6907639159926071	-0.4512376202803479	0.0	0.7388525224160793	-0.3845552029649842	0.0	0.7301090097892236	-0.43121324338100053	0.0	0.6544315737303479	-0.46169222528741427	0.0	0.6130985803890232	-0.5379052188027869	0.0	0.6507969397194203	-0.6084833265768321	0.0	0.702796022490403	-0.47643663377285494	0.0	0.6814347909042917	-0.543679363888919	0.0	0.6867093460579836	-0.614610124340973	0.0
93	3.129523809523809	0.6041653716670683	-0.5848214022695317	0.0	0.5897015581230352	-0.5820863232183628	0.0	0.6553219958271258	-0.6878855706848516	0.0	0.6457114490322422	-0.8100797950315649	0.0	0.6936651363591204	-0.8342716984709008	0.0	0.6822606506143576	-0.8385531255087084	0.0	0.6362930277055167	-0.8310858065292116	0.0	0.6271070823580985	-0.5870811789304583	0.0	0.656844953974647	-0.6873214671925838	0.0	0.6154421987766706	-0.8014784012865356	0.0	0.6698074906594897	-0.8268515117610491	0.0	0.6655131611507056	-0.8257891324351978	0.0	0.6026403409666028	-0.8249145541503193	0.0	0.6899467413492442	-0.452941751361766	0.0	0.7369238744568649	-0.3855633292363316	0.0	0.7282143828515076	-0.43196458466966825	0.0	0.6522173766874475	-0.46454386631849215	0.0	0.6097679730216476	-0.5414964823383238	0.0	0.6399134896895052	-0.6159652426068354	0.0	0.7026648766762854	-0.4791462884729095	0.0	0.6817027309362623	-0.5478773214350728	0.0	0.6847239993277908	-0.6203904749785426	0.0
94	3.163174603174603	0.6040894762808676	-0.5905609245443584	0.0	0.5900719107739684	-0.5870533973798893	0.0	0.6588435602282068	-0.6897450788571939	0.0	0.6448731158474782	-0.8112288301819716	0.0	0.6894888270068734	-0.8369902512171956	0.0	0.6783032685922292	-0.8410443976887272	0.0	0.634421445732861	-0.8328840685233221	0.0	0.6267360564361282	-0.5924863855482919	0.0	0.6512046433647526	-0.6926200876942014	0.0	0.6143120917114491	-0.8076421395649558	0.0	0.6687222892128275	-0.8345763752515062	0.0	0.6639728294245102	-0.8325025234572612	0.0	0.6022053358813771	-0.8310725913030723	0.0	0.688876411427096	-0.45779170634353394	0.0	0.734578874451087	-0.3897880110282637	0.0	0.7260807596446567	-0.4361005208257318	0.0	0.6498911320876011	-0.47061291346929096	0.0	0.6065916829760218	-0.5478140728536572	0.0	0.6295131057474784	-0.6254636540550278	0.0	0.7022557210906736	-0.48507340605805677	0.0	0.6823833807330958	-0.5549719153777649	0.0	0.6842112782507921	-0.6286382884751839	0.0
95	3.1968253968253966	0.6049671005099806	-0.599626642845567	0.0	0.590915926978877	-0.5953555508858187	0.0	0.6614157107429801	-0.6954907745320572	0.0	0.6429602140665667	-0.8161832186257164	0.0	0.6843971282222242	-0.8429449804168432	0.0	0.673311258210307	-0.8468342038794084	0.0	0.6316198226462111	-0.8383424176071183	0.0	0.6268534967022917	-0.6010990867886458	0.0	0.6471956321587604	-0.7010722693122771	0.0	0.6139407703412043	-0.8165252374408905	0.0	0.6682876661821373	-0.8448423490060856	0.0	0.6626764383436274	-0.8417871962128419	0.0	0.6022255887610302	-0.8397591339540482	0.0	0.6874684808279085	-0.46517888594431056	0.0	0.7317018220034236	-0.3965825474694492	0.0	0.7236235613505881	-0.44293347927195376	0.0	0.6472637504182243	-0.47935314965464976	0.0	0.6035521007018856	-0.5563396131344659	0.0	0.6198244643936721	-0.6363628003214632	0.0	0.7014646480615999	-0.4935229545351885	0.0	0.6833854531416016	-0.5642202447984968	0.0	0.6853345388413321	-0.63865842944906	0.0
96	3.23047619047619	0.6070225843215712	-0.6111769214809025	0.0	0.5924052451298837	-0.6063538071494428	0.0	0.662737932830719	-0.7048291183097338	0.0	0.6400380339817475	-0.8246200635140544	0.0	0.678892552943062	-0.8519146089402005	0.0	0.6678202020824846	-0.8556695906493297	0.0	0.627987412705059	-0.8470394860131077	0.0	0.6278246252327045	-0.61217859135054	0.0	0.6451204911067664	-0.7119734829247174	0.0	0.6140468709345668	-0.8273112233156527	0.0	0.66827156631019	-0.8565422885936145	0.0	0.6614686467155441	-0.8526077846033568	0.0	0.6023079345888924	-0.8502238486240289	0.0	0.6857647418288394	-0.4741838023077741	0.0	0.7282200863018252	-0.4050472911563561	0.0	0.7208296323851668	-0.45147413793724295	0.0	0.6443267386043002	-0.4898258436501137	0.0	0.600726855696527	-0.5662911809550866	0.0	0.6110438054984998	-0.6479502386905317	0.0	0.7003396593364267	-0.50361917541825	0.0	0.6847838343582402	-0.5748257735925125	0.0	0.6882711122092882	-0.6497342653050364	0.0
97	3.2641269841269835	0.6102527126224427	-0.6240439131834118	0.0	0.5946619612138605	-0.6190203215985709	0.0	0.6627968544709884	-0.7168875964421236	0.0	0.6364748658898751	-0.8356765738481808	0.0	0.673662380450513	-0.8630891915084836	0.0	0.6625271735940609	-0.8667081674020276	0.0	0.6238329007099384	-0.8580361300450994	0.0	0.6298523732560738	-0.6246032829162519	0.0	0.6446925595650627	-0.7245108828127099	0.0	0.6144165267206374	-0.8391383960827559	0.0	0.6682776043328094	-0.8686220027701442	0.0	0.6601474441119266	-0.8637637833977386	0.0	0.6022269641185546	-0.8615594580041287	0.0	0.6838918384045195	-0.48372115528437876	0.0	0.7240990864700403	-0.41412212500222995	0.0	0.7177180889494335	-0.46051107680118025	0.0	0.6412421470825795	-0.5008546432533997	0.0	0.5981799984816044	-0.576657918614221	0.0	0.6031517721541089	-0.6593393267353463	0.0	0.6990976539209282	-0.5143239457912102	0.0	0.6868022863507541	-0.5858808138452157	0.0	0.6932072471899643	-0.6609471568140045	0.0
98	3.2977777777777773	0.6142861014760932	-0.6368985378112467	0.0	0.5975789853792226	-0.6320611765911581	0.0	0.6618805837679896	-0.7302350025614908	0.0	0.6328774037912938	-0.8479246298284138	0.0	0.6693625266059822	-0.8751703326546783	0.0	0.6580697546089627	-0.8786139400862009	0.0	0.6196744225472811	-0.8698933939667753	0.0	0.632869485962812	-0.6370512651243717	0.0	0.645177884392354	-0.7377276956652145	0.0	0.6148569862461355	-0.8510266899371899	0.0	0.6676979918451956	-0.8801194130749166	0.0	0.6584491575430559	-0.8741262041301685	0.0	0.6019454388427621	-0.8727384721649868	0.0	0.6819990287101558	-0.49270001883420617	0.0	0.7193765962212609	-0.4226875635864248	0.0	0.7143259163183698	-0.4687499388037703	0.0	0.6382365206203868	-0.5112373537022995	0.0	0.5958529246339439	-0.5862792397625828	0.0	0.5957717712670162	-0.6694196061298084	0.0	0.6980647028297052	-0.5244990034437338	0.0	0.6897480596384086	-0.5963223895246353	0.0	0.7003518005987612	-0.6710297350566774	0.0
99	3.331428571428571	0.618417277762328	-0.648381164059074	0.0	0.6007301374619486	-0.6440259750225149	0.0	0.6605053542557745	-0.7430361495187087	0.0	0.6298872464776347	-0.8595769387026619	0.0	0.6664250842475961	-0.8865794818951833	0.0	0.6548790356089865	-0.8898138990585167	0.0	0.6160839744870473	-0.8809199399060434	0.0	0.6364834384592193	-0.6481778784060845	0.0	0.6456646306843324	-0.7503728477590602	0.0	0.6151901091597894	-0.8618814781214827	0.0	0.6661344981158122	-0.8901754857377684	0.0	0.6562659474899605	-0.8828351476415804	0.0	0.6015629130043588	-0.882704770311577	0.0	0.6802217494358542	-0.500095210453404	0.0	0.7142397937374979	-0.4296126763026111	0.0	0.7107079323148489	-0.4749926988683247	0.0	0.6354960760989665	-0.5198536103847107	0.0	0.5935358159386382	-0.5939136976484394	0.0	0.588255100581464	-0.6768963658468203	0.0	0.697547570048282	-0.5329884123796403	0.0	0.6939235268384503	-0.604898473836893	0.0	0.7098854376293685	-0.6784213928970731	0.0
100	3.3650793650793647	0.6219260224695432	-0.6572004307548225	0.0	0.6035404810291916	-0.6534293023399771	0.0	0.6592445571056975	-0.7533712988817653	0.0	0.6279342097133545	-0.8688555301091675	0.0	0.6649117734729474	-0.8957462008373405	0.0	0.6530676036991069	-0.8988013163717183	0.0	0.6134736610723804	-0.8895352462944113	0.0	0.6400908494247792	-0.6567381434542005	0.0	0.6453693778853249	-0.7608709231857994	0.0	0.6152668116490723	-0.8705825468926289	0.0	0.6638167753835954	-0.8980093168635165	0.0	0.6538104673998107	-0.8893626556790865	0.0	0.6012185863440487	-0.8905031541531222	0.0	0.6786764810095155	-0.504955513516371	0.0	0.7090429857288195	-0.4337972293794498	0.0	0.706960915493921	-0.47830965122381025	0.0	0.6331558877223666	-0.5256916769763186	0.0	0.5909435333869892	-0.5983167084415957	0.0	0.5799368899416096	-0.680400805601907	0.0	0.6977104934426465	-0.5387082603648491	0.0	0.6995473983212536	-0.6102166633886829	0.0	0.7218219787975446	-0.6815428539686119	0.0
101	3.3987301587301584	0.6244424926181467	-0.6622714180463765	0.0	0.6056248504571886	-0.6589543631565659	0.0	0.658536427854025	-0.7596729944720884	0.0	0.6271704459796245	-0.8744124491681405	0.0	0.6644751898156818	-0.9014911446238574	0.0	0.6523587381943016	-0.9044541321879896	0.0	0.6120629215413941	-0.8945617099055146	0.0	0.6431625278620791	-0.6617231914667694	0.0	0.6438137227424525	-0.7676511830615562	0.0	0.6149450845197162	-0.8761820874948464	0.0	0.6613376864272045	-0.9029322509889881	0.0	0.651420872674698	-0.8934542858522597	0.0	0.6010007374567389	-0.895432942327316	0.0	0.6774413432394542	-0.5064919843464128	0.0	0.7041772633079643	-0.4343304765604463	0.0	0.7032437984076565	-0.47814820489181964	0.0	0.6313403872212754	-0.527902977511565	0.0	0.5878466953968692	-0.5983743615176902	0.0	0.5703646957733474	-0.6786620469848288	0.0	0.6985649136694171	-0.5408025464678134	0.0	0.7066838799172587	-0.6109898598820749	0.0	0.7358678097801576	-0.6791455184632073	0.0
102	3.432380952380952	0.6260571533259612	-0.6629954029920024	0.0	0.6070007413022446	-0.659811138394253	0.0	0.6585779536583568	-0.7611232896659145	0.0	0.6275661501880048	-0.8756712340995434	0.0	0.6645195649783467	-0.9033594236127562	0.0	0.6521989777156993	-0.906316596387152	0.0	0.6119437162136425	-0.8954017931208137	0.0	0.6454814386766448	-0.6626091881374327	0.0	0.6408820304142382	-0.7697480722278914	0.0	0.6141236066549991	-0.8782627281992244	0.0	0.6590520348016564	-0.9045294866269353	0.0	0.6492856133392019	-0.8951247124892657	0.0	0.6009385046993931	-0.8972244753274168	0.0	0.6765206464269671	-0.5042925826646832	0.0	0.6999166730588161	-0.430742300241654	0.0	0.6997304335944794	-0.47436247106213175	0.0	0.6301629385414997	-0.5259569279967979	0.0	0.5841786914654868	-0.5933323635485769	0.0	0.5593802552763147	-0.6708088914861691	0.0	0.7000416812493174	-0.5388507303956885	0.0	0.715186877076023	-0.6064321241754764	0.0	0.7514334753433917	-0.6706145266549023	0.0
103	3.466031746031746	0.6271286733438518	-0.6595420318663571	0.0	0.6079682815958655	-0.6560928831390037	0.0	0.6593350270580867	-0.7578442817450485	0.0	0.6289552463484918	-0.8729271585120423	0.0	0.6645162593184071	-0.9016882165283635	0.0	0.6520521052380062	-0.9046938826278188	0.0	0.6130350727192214	-0.8921566788641385	0.0	0.6471504127922789	-0.6595935941528552	0.0	0.6368305015752537	-0.7672084948529062	0.0	0.6128452746157907	-0.8771692705112658	0.0	0.6569311230957878	-0.9029105334364768	0.0	0.6474609480138066	-0.8947132160644883	0.0	0.6010430961153465	-0.8961407204392381	0.0	0.6758546694903387	-0.4985283325926571	0.0	0.6963670423978401	-0.4231972735198737	0.0	0.6965288017499919	-0.4672408987981145	0.0	0.6296721662777612	-0.5198829968787261	0.0	0.5800580575362277	-0.5831240648048608	0.0	0.5471067824545145	-0.6567808011225218	0.0	0.7020316871429448	-0.5330219189830286	0.0	0.7247171964531851	-0.5966050138452517	0.0	0.7678311127077889	-0.6562134448599851	0.0
